<?xml version="1.0" encoding="utf-8"?>
<!-- Generator: Adobe Illustrator 23.0.4, SVG Export Plug-In . SVG Version: 6.00 Build 0)  -->
<svg version="1.1" id="Layer_1" xmlns="http://www.w3.org/2000/svg" xmlns:xlink="http://www.w3.org/1999/xlink" x="0px" y="0px"
	 viewBox="0 0 94 35" style="enable-background:new 0 0 94 35;" xml:space="preserve">
<style type="text/css">
	.st0{fill:#EC1C24;}
	.st1{fill:#EFE804;}
	.st2{fill:#383838;}
</style>
<g id="XMLID_1127_">
	<g id="XMLID_1136_">
		<path id="XMLID_1138_" class="st0" d="M14.46,23.08l-0.5-3.95c-1.29-0.91-2.29-1.67-3.48-2.54c-0.56-4.15,0.47-6.41,2.01-8.55
			c1.9-2.42,4.96-4.23,8.62-4.23c3.67,0.03,6.74,1.88,8.55,4.3c1.69,2.29,2.6,5.18,1.94,8.6l-3.29,2.42l-0.49,3.95h-5.24
			c-0.31,0.26-0.76,0.5-1.46,0.52c-0.68-0.02-1.12-0.25-1.47-0.52H14.46z"/>
		<path id="XMLID_1137_" class="st1" d="M21.11,17.6c-0.27-3.68-0.35-8.22-0.58-11.87c-0.4-0.1-0.94-0.06-1.41,0.01
			c-0.46,0.14-0.8,0.26-1.19,0.49c0.71,3.5,1.55,7.95,2.25,11.43c-0.96-3.37-2.25-7.6-3.21-10.97c-0.45,0.09-0.9,0.35-1.23,0.62
			c-0.34,0.27-0.55,0.47-0.86,0.95c1.39,2.96,3.06,6.74,4.45,9.68c-1.62-2.68-3.59-6.2-5.21-8.86c-0.32,0.28-0.55,0.48-0.87,1.01
			c-0.27,0.43-0.4,0.94-0.46,1.43c1.77,2.17,3.9,4.77,5.69,6.93c-1.86-1.8-4.16-4.11-6-5.91c-0.19,0.36-0.3,0.67-0.35,1.28
			c-0.07,0.58,0.05,1.28,0.17,1.7l3.61,2.68l0.38,2.97l3.97,0.03c0.28,0.34,0.38,0.51,0.84,0.53c0.45-0.02,0.71-0.3,0.83-0.53h3.96
			l0.4-2.98l3.58-2.66c0.14-0.44,0.22-1.11,0.18-1.7c-0.06-0.63-0.18-0.94-0.33-1.28c-1.85,1.79-4.16,4.1-6,5.9
			c1.8-2.14,3.9-4.76,5.7-6.94c-0.09-0.49-0.21-0.99-0.49-1.42c-0.33-0.53-0.53-0.73-0.84-1.02c-1.64,2.65-3.62,6.2-5.24,8.86
			c1.43-2.95,3.07-6.73,4.47-9.66c-0.31-0.47-0.53-0.7-0.83-0.96c-0.36-0.27-0.81-0.53-1.25-0.63c-1.01,3.35-2.24,7.62-3.22,10.97
			c0.68-3.47,1.53-7.89,2.21-11.38c-0.34-0.24-0.68-0.38-1.13-0.5c-0.52-0.1-1.02-0.11-1.42-0.05C21.4,9.41,21.4,13.94,21.11,17.6z"
			/>
	</g>
	<g id="XMLID_1128_">
		<path id="XMLID_1135_" class="st2" d="M10.25,29.14c0.61,0,1.22,0,1.83,0c-0.02,0.41,0.17,0.5,0.27,0.57
			c0.1,0.04,0.87,0.08,1.24,0.01c0.15-0.03,0.3-0.08,0.3-0.55c0-0.2-0.05-0.42-0.28-0.46c-0.8-0.07-1.59,0.02-2.4-0.06
			c-0.81-0.17-0.93-0.38-0.97-1.02c0.05-0.88,0.36-1.13,1.27-1.16c0.94-0.03,1.88-0.03,2.81,0c0.96,0,1.25,0.37,1.25,1.17H13.9
			c0-0.39-0.07-0.55-0.28-0.57c-0.41-0.03-0.81-0.03-1.23,0c-0.16,0-0.35,0.08-0.35,0.44c0,0.34,0.09,0.43,0.32,0.46
			c0.69,0.02,1.39,0.03,2.08,0.08c1.13,0.07,1.17,0.57,1.21,1.11c0.01,0.75-0.25,1.02-0.45,1.14c-0.19,0.09-1.11,0.2-1.29,0.2
			c0,0-1.42,0-1.82,0c-0.41,0-0.92-0.05-1.37-0.18C10.29,30.18,10.25,29.62,10.25,29.14z"/>
		<rect id="XMLID_1134_" x="27.54" y="26.47" class="st2" width="1.61" height="4.01"/>
		<rect id="XMLID_1133_" x="30.22" y="26.47" class="st2" width="1.6" height="4.01"/>
		<path id="XMLID_1130_" class="st2" d="M26.59,28.38c-0.03-0.12-0.06-0.24-0.11-0.36c-0.27-0.45-1.22-0.45-2.14-0.47
			c-0.7,0-1.73,0.02-2.03,0.31c-0.13,0.14-0.19,0.33-0.23,0.52c-0.04,0.24-0.04,0.48-0.04,0.6c0,0.21,0.02,1.01,0.41,1.22
			c0.36,0.24,1.45,0.27,1.87,0.27c0.45,0,1.68-0.05,1.86-0.26c0.31-0.12,0.39-0.51,0.45-0.83h-1.58c0,0.32-0.25,0.5-0.74,0.48
			c-0.44,0.02-0.7-0.08-0.7-0.64l3.02,0.01C26.64,28.97,26.65,28.67,26.59,28.38z M25.06,28.66h-1.44c0-0.12,0.02-0.21,0.05-0.28
			c0.11-0.25,0.37-0.26,0.66-0.28c0.43,0,0.63,0.1,0.7,0.28C25.06,28.46,25.07,28.56,25.06,28.66z"/>
		<path id="XMLID_1129_" class="st2" d="M16.59,30.49h1.58v-1.71c0.04-0.23,0.1-0.42,0.68-0.42c0.55-0.01,0.7,0.14,0.7,0.42v1.71
			h1.57v-1.71c0-0.55-0.01-0.86-0.36-1.02c-0.32-0.21-0.79-0.18-1.22-0.18c-0.46,0-0.97,0.06-1.36,0.24v-1.35h-1.58V30.49z"/>
	</g>
</g>
</svg>
